<svg xmlns="http://www.w3.org/2000/svg" width="156.688" height="37.38" viewBox="0 0 156.688 37.38">
  <g id="Group_3" data-name="Group 3" transform="translate(-296 -122)">
    <path id="Path_19" data-name="Path 19" d="M8.547-20.516l8.922,13.5V-20.641a2.991,2.991,0,0,1,.57-1.992,1.925,1.925,0,0,1,1.539-.664,1.984,1.984,0,0,1,1.578.664,2.963,2.963,0,0,1,.578,1.992V-2.625q0,3.016-2.5,3.016a3.311,3.311,0,0,1-1.125-.18,2.855,2.855,0,0,1-.937-.57,5.555,5.555,0,0,1-.812-.914q-.375-.523-.75-1.07l-8.7-13.344V-2.266A2.864,2.864,0,0,1,6.3-.281,2.015,2.015,0,0,1,4.734.391a1.992,1.992,0,0,1-1.578-.68,2.92,2.92,0,0,1-.594-1.977V-19.937a5,5,0,0,1,.25-1.766A2.521,2.521,0,0,1,3.8-22.852,2.679,2.679,0,0,1,5.281-23.3a2.565,2.565,0,0,1,1.07.2,2.578,2.578,0,0,1,.781.547,5.645,5.645,0,0,1,.688.891Q8.172-21.109,8.547-20.516ZM36.891-23.3a12.232,12.232,0,0,1,6.117,1.445,9.368,9.368,0,0,1,3.867,4.109,14.006,14.006,0,0,1,1.313,6.258,15.306,15.306,0,0,1-.719,4.828,10.445,10.445,0,0,1-2.156,3.766A9.42,9.42,0,0,1,41.781-.453a12.754,12.754,0,0,1-4.8.844,12.642,12.642,0,0,1-4.812-.867,9.546,9.546,0,0,1-3.547-2.445,10.445,10.445,0,0,1-2.148-3.8,15.328,15.328,0,0,1-.727-4.8,14.809,14.809,0,0,1,.758-4.844,10.391,10.391,0,0,1,2.2-3.75,9.494,9.494,0,0,1,3.5-2.367A12.6,12.6,0,0,1,36.891-23.3Zm6.594,11.781a10.746,10.746,0,0,0-.812-4.359,6.066,6.066,0,0,0-2.32-2.789,6.378,6.378,0,0,0-3.461-.945,6.266,6.266,0,0,0-2.57.523,5.648,5.648,0,0,0-2.031,1.523,7.279,7.279,0,0,0-1.344,2.555,11.545,11.545,0,0,0-.492,3.492,11.833,11.833,0,0,0,.492,3.531,7.24,7.24,0,0,0,1.391,2.617A5.842,5.842,0,0,0,34.4-3.812a6.238,6.238,0,0,0,2.555.516,6.269,6.269,0,0,0,3.273-.891A6.157,6.157,0,0,0,42.6-6.937,10.632,10.632,0,0,0,43.484-11.516Zm22.328-7.562H60.75V-2.437A3.062,3.062,0,0,1,60.109-.3a2.149,2.149,0,0,1-1.656.7,2.18,2.18,0,0,1-1.68-.7,3.043,3.043,0,0,1-.648-2.125V-19.078H51.063A2.564,2.564,0,0,1,49.3-19.6a1.776,1.776,0,0,1-.578-1.383,1.755,1.755,0,0,1,.6-1.406,2.606,2.606,0,0,1,1.742-.516h14.75a2.6,2.6,0,0,1,1.789.531,1.789,1.789,0,0,1,.586,1.391,1.754,1.754,0,0,1-.594,1.383A2.626,2.626,0,0,1,65.813-19.078Zm20.219-.25H75.578V-13.7H85.2a2.291,2.291,0,0,1,1.586.477,1.62,1.62,0,0,1,.523,1.258A1.682,1.682,0,0,1,86.8-10.7,2.238,2.238,0,0,1,85.2-10.2H75.578v6.516H86.391a2.366,2.366,0,0,1,1.648.508,1.744,1.744,0,0,1,.555,1.352,1.707,1.707,0,0,1-.555,1.32A2.366,2.366,0,0,1,86.391,0H73.781A2.976,2.976,0,0,1,71.6-.672a3,3,0,0,1-.664-2.172V-20.062a3.861,3.861,0,0,1,.3-1.633,1.843,1.843,0,0,1,.93-.922,3.908,3.908,0,0,1,1.617-.289h12.25a2.38,2.38,0,0,1,1.648.492,1.663,1.663,0,0,1,.539,1.289,1.682,1.682,0,0,1-.539,1.3A2.38,2.38,0,0,1,86.031-19.328ZM109.688-6.875a6.731,6.731,0,0,1-1.07,3.734,7.111,7.111,0,0,1-3.133,2.594,11.738,11.738,0,0,1-4.891.938A11,11,0,0,1,95-.891a7.453,7.453,0,0,1-2.539-2.461,5.586,5.586,0,0,1-.977-2.992,2,2,0,0,1,.586-1.445,1.994,1.994,0,0,1,1.492-.6,1.764,1.764,0,0,1,1.242.469,3.687,3.687,0,0,1,.867,1.391A9.292,9.292,0,0,0,96.617-4.7a3.832,3.832,0,0,0,1.43,1.211,5.284,5.284,0,0,0,2.422.477,5.465,5.465,0,0,0,3.352-.961,2.891,2.891,0,0,0,1.289-2.4,2.535,2.535,0,0,0-.7-1.852,4.484,4.484,0,0,0-1.8-1.086q-1.1-.375-2.945-.8a21.607,21.607,0,0,1-4.133-1.352A6.679,6.679,0,0,1,92.9-13.57a5.475,5.475,0,0,1-.977-3.32,5.7,5.7,0,0,1,1.031-3.359,6.5,6.5,0,0,1,2.984-2.258,12.221,12.221,0,0,1,4.594-.789,11.363,11.363,0,0,1,3.648.523,7.711,7.711,0,0,1,2.555,1.391,5.809,5.809,0,0,1,1.484,1.82,4.2,4.2,0,0,1,.469,1.859,2.2,2.2,0,0,1-.586,1.492,1.869,1.869,0,0,1-1.461.664,1.68,1.68,0,0,1-1.211-.4,5.369,5.369,0,0,1-.9-1.3,5.915,5.915,0,0,0-1.5-2.023A4.387,4.387,0,0,0,100.219-20a4.87,4.87,0,0,0-2.9.789,2.3,2.3,0,0,0-1.1,1.9,1.923,1.923,0,0,0,.375,1.188,3.157,3.157,0,0,0,1.031.859,6.953,6.953,0,0,0,1.328.563q.672.2,2.219.594a34.815,34.815,0,0,1,3.508,1,10.659,10.659,0,0,1,2.672,1.328A5.463,5.463,0,0,1,109.07-9.8,6.33,6.33,0,0,1,109.688-6.875Z" transform="translate(343 152)" fill="#fff"/>
    <g id="document" transform="translate(269.43 122)">
      <g id="Group_2" data-name="Group 2" transform="translate(26.57)">
        <g id="Group_1" data-name="Group 1">
          <path id="Path_1" data-name="Path 1" d="M124.419,201.46a1.46,1.46,0,0,0-1.46-1.46H107.919a1.46,1.46,0,1,0,0,2.92h15.039A1.46,1.46,0,0,0,124.419,201.46Z" transform="translate(-100.627 -185.399)" fill="#fdcb09"/>
          <path id="Path_2" data-name="Path 2" d="M107.919,280a1.46,1.46,0,0,0,0,2.92h9.134a1.46,1.46,0,0,0,0-2.92Z" transform="translate(-100.627 -259.558)" fill="#fdcb09"/>
          <path id="Path_3" data-name="Path 3" d="M37.294,34.459H32.411a2.924,2.924,0,0,1-2.92-2.92V5.841a2.924,2.924,0,0,1,2.92-2.92H50.362a2.924,2.924,0,0,1,2.92,2.92v8.98a1.46,1.46,0,0,0,2.92,0V5.841A5.847,5.847,0,0,0,50.362,0H32.411A5.847,5.847,0,0,0,26.57,5.841v25.7a5.847,5.847,0,0,0,5.841,5.841h4.883a1.46,1.46,0,1,0,0-2.92Z" transform="translate(-26.57 0)" fill="#fdcb09"/>
          <path id="Path_4" data-name="Path 4" d="M259.842,273.305a4.385,4.385,0,0,0-6.194,0l-8.016,8a1.46,1.46,0,0,0-.366.609l-1.746,5.747a1.46,1.46,0,0,0,1.787,1.831l5.893-1.633a1.459,1.459,0,0,0,.642-.374l8-7.985A4.385,4.385,0,0,0,259.842,273.305Zm-9.791,11.841-2.965.821.868-2.857,5.409-5.4,2.065,2.065Zm7.727-7.712-.283.282-2.065-2.065.282-.281a1.46,1.46,0,0,1,2.066,2.064Z" transform="translate(-227.623 -252.164)" fill="#fdcb09"/>
          <path id="Path_5" data-name="Path 5" d="M122.959,120H107.919a1.46,1.46,0,1,0,0,2.92h15.039a1.46,1.46,0,1,0,0-2.92Z" transform="translate(-100.627 -111.239)" fill="#fdcb09"/>
        </g>
      </g>
    </g>
  </g>
</svg>
